<mxfile host="65bd71144e">
    <diagram id="HIP3nbAZw_EuaXWnEj3U" name="Page-1">
        <mxGraphModel dx="606" dy="563" grid="1" gridSize="10" guides="1" tooltips="1" connect="1" arrows="1" fold="1" page="1" pageScale="1" pageWidth="850" pageHeight="1100" math="0" shadow="0">
            <root>
                <mxCell id="0"/>
                <mxCell id="1" parent="0"/>
                <mxCell id="7" value="http://ics2o.mths.ca" style="swimlane;whiteSpace=wrap;html=1;" parent="1" vertex="1">
                    <mxGeometry x="40" y="40" width="760" height="480" as="geometry"/>
                </mxCell>
                <mxCell id="8" value="Loop number" style="whiteSpace=wrap;html=1;" vertex="1" parent="7">
                    <mxGeometry y="20" width="760" height="40" as="geometry"/>
                </mxCell>
                <mxCell id="9" value="&lt;font style=&quot;font-size: 18px;&quot;&gt;Get your number&lt;/font&gt;" style="text;html=1;align=center;verticalAlign=middle;resizable=0;points=[];autosize=1;strokeColor=none;fillColor=none;" vertex="1" parent="7">
                    <mxGeometry y="70" width="160" height="40" as="geometry"/>
                </mxCell>
                <mxCell id="10" value="Please enter info!" style="text;html=1;align=center;verticalAlign=middle;resizable=0;points=[];autosize=1;strokeColor=none;fillColor=none;" vertex="1" parent="7">
                    <mxGeometry y="120" width="120" height="30" as="geometry"/>
                </mxCell>
                <mxCell id="11" value="&lt;font style=&quot;font-size: 11px;&quot;&gt;first Number&lt;/font&gt;" style="text;html=1;align=center;verticalAlign=middle;resizable=0;points=[];autosize=1;strokeColor=none;fillColor=none;fontSize=18;" vertex="1" parent="7">
                    <mxGeometry y="150" width="80" height="40" as="geometry"/>
                </mxCell>
                <mxCell id="12" value="" style="rounded=1;whiteSpace=wrap;html=1;fontSize=11;" vertex="1" parent="7">
                    <mxGeometry x="20" y="190" width="90" height="20" as="geometry"/>
                </mxCell>
                <mxCell id="13" value="Scond Number" style="text;html=1;align=center;verticalAlign=middle;resizable=0;points=[];autosize=1;strokeColor=none;fillColor=none;fontSize=11;" vertex="1" parent="7">
                    <mxGeometry y="225" width="100" height="30" as="geometry"/>
                </mxCell>
                <mxCell id="15" value="" style="rounded=1;whiteSpace=wrap;html=1;fontSize=11;" vertex="1" parent="7">
                    <mxGeometry x="20" y="270" width="100" height="20" as="geometry"/>
                </mxCell>
                <mxCell id="16" value="Get Number" style="whiteSpace=wrap;html=1;fontSize=11;" vertex="1" parent="7">
                    <mxGeometry x="10" y="320" width="100" height="30" as="geometry"/>
                </mxCell>
                <mxCell id="17" value="" style="shape=image;verticalLabelPosition=bottom;labelBackgroundColor=default;verticalAlign=top;aspect=fixed;imageAspect=0;image=data:image/png,iVBORw0KGgoAAAANSUhEUgAAAOEAAADhCAMAAAAJbSJIAAAAkFBMVEX///8AAAD6+vrx8fH29vbm5ubq6urj4+PMzMzn5+doaGjf39/y8vLCwsK4uLju7u5fX1+RkZHU1NSBgYGioqJBQUHHx8c1NTVZWVm7u7uvr68qKioVFRVzc3Pa2tqmpqaJiYkiIiJGRkZlZWVNTU2ZmZmCgoIuLi54eHgbGxtvb28NDQ2NjY0XFxdCQkIeHh6pNzfdAAANDUlEQVR4nO1d6WKyOhBVRKFaUXHDDZeKWm37vf/b3QKTlShbWNLL+VXRkgxJZjkzCa1WgwYNGjRo0KBBgwb/G+gjY+C69mK4MG3XHRi996p7JA0D0/r6OM83jzaDx3F57k9WZq/q/uWBZu5vy3YcHo630qvuanpo3fUlXjiC69Squstp8DbcpZEOMK6620kxmM3TSxfAqLrrSTCYfGYUTwkJe0lG73szPzvjPsbYOc+vwWO5sXfTV57nzXzsf7G2huaviTG6b71RVWpp+PFKsM14OrFco9vr6Br/n5reGb0ZXfZib/PsVtvrjzO+f60XthG5VXHQZ/+edWj5tTZH6btyj58Ov4bmOvYsuwB5eAxu4oc9v2Vv/iG8pRib294tcuq6wsfteO4oz11TK+TxmyyBONiOoLW7lUs6H+u0ErYfhaxKYxxp6PhlSrk1fnLbpBO2AK9oFFl/x4sr6+b6Fe7p+J80TXvvGa5tm4vV7LAbn+fHiIQzWU1jeHwTH0OZ691Ft/WEX78brjW50SZKztwhMHmDNe3G/1MqWOjOLxTykLR/e/6rLBhx9v17X8A6/0Jz/+nUsHEHHiu5bXOablOEfL84w/3vT77vYiU0lssYdLgBXBflPb2hFsRqUsMx2pfcdlesfJMCvUPclNC+oiGWrUVZE3HPbdsTNSYKj2/FCGj80PItZWtoHhqyitF5OkOdEFuTrGBnaJETFGBCUw9en2I7cZDa3oSWbz6Qeu8nmEJrffYy9gf64n/LBo2JIiTrr6eNoshzQV8doV6cZLY1OlPyfRe9AjEW0OKGWhI6Cq4+ZfqJnS0loFMiWdJHqx5fGeHoUSZ7ZdAzVK76ioG+5cTBjoBUZ9umBRxKvHECIBccGcUT6ofMiNCl5DuWTmwiLzFUNibuyU2etaKn6Lx8vrKDnm3waU/6spFlsGgBK0kvIKGC9c+4jWsp93+jqPqdlDumBooifC+Y5YbuEmaqtqlcQGwUp60I0Shh1ZyrF5AM3KA1CsJeyjg/8jKltzoI2BpAF5xWN1x/NA+Wj9inNFelOUzkgduhZbbwxPWRx0BTln5eYqonCg16cd4jmUbUglzE3yDmvv7Mr1RAMpk+ycSckt5l9t8ozVxKNPgKTG1AqF2oxZiRbKcWYfW1EkNaQphQFK2ZSaNSvkxJ8e5L0GkudI2iVToZbkksodRQOitsgYSUSs3QR2oK1KM2i2iFLblIJm/qzEWHCCjHv82NAe7QlbpqZe4m4Z2k8ll5sEM9mtNXiT5Mp1CpWV+POdqiVB+75jDJuU2lbYjmkp9czQxk4+fsZURWpZptZAEvpfYxH3pP+nREnU1htq9YwjJKchLjEPZpw10mljvxPCVm5kNyH/NBDzsVCXOw5U8cAGHGrnp/lEWYcorGEpeU85QwdlPJPcyN2bY9F0USaFk9kiW8ifdQVDGVdGBK95Lk14Q3f1YkUEOg0o1EyQwSd9W/cBcD54uTKBtsKpQpL/eBvbD4gJ/omdKyhFKA3NZr7C8x/1EndyYBcDQUazHwENbII00E5ILPY35Hoopii2XkQ/uGjscQqFjt1sthSwJES5xf/wzTdpLr/coA6vtLFUn89Io54CxAlMZLWgqHFRUmYrIDpQJfuSoHJGHJBQlygEibVxEDpi9K65VUQOfZQrh3etsONptKeWwEqGaRphZ/XZgrCSlxXLEvv3cygEaIMhgeKzKmoOja+541zJIWqASI5yXk6TG8gCq5UOS0oSbyhB/2OgO5ZAd8BRW8Q2yM3G7i0KCtFdL2wxQMyA0f8QVMOoX2DyWc0JgamG5VZRCRwcAjgt3QcNiQyQxpUp3KJKtiH5GuwTlPKonmiwh/PvxkhTZrU6gVNfwKyKKjz3Td4Q5L6IdYFru3SRnaDTmnaEg0WopbC/9hnBn5Ikx6fYEkwlXFTKEYYkpXkc13cYFzjQDKEQcYF14WMWqTJ40HymKgdQXUmnMWS/aAJ1JqcXc+IG2KtL9+DD4uO6Jdy+2+Dgq1+oqa5ABJcAgFg2S2ohvrNyZ29FTiTmFQcCkeTNsdtV0KEGgjqOVUxvVuEQuIKhDQtH3nSqvGARWAdG+FHU4PsOSYS4Np6hPAgyMWEL4GRaQW/32j5qAPmx4mj1ul4NXVobItOWDhkTB4SY+aP2gnEipBvkOVyCJEjx4zH2tmJtpfNBcM2+MUyiT6AAlxFQKUOIgGChWTKUYP33iBUJ1KVA5w1J0yuycBEe2BNmVGCbY+p5UUQZdXNZjp5gcRbetXJvwFgBX/R66glciPFSzDT5U8mgDgmvKMYTtwbGjs1VyGeFJSBCEaRK6CBh6FavlurCHp+jBEwjGUGnJZVeFKCQzB0ABxuqWzNnvGFVAJndBTYbJsyDulM6NLVScpGjC2FgEFwCTW5eMslTAWqEgUCX5iowhet0I0G0FIsP2wFxFHhfZmIE9HrbgCEPptG24TLcq9Aes0EegeZWAKFxg+/CJIj77Dh0P53ZMA0CF81IdPEvE/TGhxlYP+EEqI9emOZPQVIrsZHIPeRyrx8e77NU5SqefPhDiLJSQbxCaKDyHk6wVhH9ntpq61DxCaC9E2b5bbV4tFpBGy28ICyysl4FbddxiEfraw+qBHSaikOxOi91xCqlhfvTJhCk/XYYvaeKoYS8rilYQoqMh+3kQdEIjwNO0ZmMtDeb0pAssn9hAwcRxF6y8xHLFP84ew+/MSBhV7agZGCeHnereq7ftJBd/m8SzG34IfQyjI9KaAq7pTFo/bp/Onl+Ev1A2MGjRo0KBBgwYNGvwPoRt/OooM022K0jmaPVsnCC98tkPJneuLm5/tfcSXbwcMv2rzVFvhzb0x55y0IA2nyg7ZAKM181ax2N8HSSp1TjUz9twGtQQFXf7Pnr+/rlboCt5JnKBCffkyhVMfGN4xIl6yBRbk9SW/QFE63Mmz188mNBf11qb2QfAy959H0mUIBWJ1TbVpq902Kt5y34My6CSHd4a7aD8L72sGvM1EO3vPa78GCEpJEx3nFdZk1k3X6OZBtPT6FpQ4QaI+UXYtLC6qlefWtfpHgXi7FdEr88TLEJe61WV/nm5NBSuvvb0xdRWw8SnhgWWhpqqBX6N31xehVZgf+EWUZhnijbMVl2Ha3ph/zTJoFk8Q3V1STTwoA6t2Je6E0rWdtTiBFg51YgsAOrnKLXqmQLrl4WlJE9SoJ3bFYJt+lS/y4M9aWd6tVzMQlmHyoy7aaf9BOvasgFvvtaGDZZg8BQwl0Y/qksbvbR6byYtVEzqlx+c/4NGBM88qLPoejI/RlThdiEMH0I2JTi8HoLr2Kk9t1QfDrw9ezIfvpmnr3RdTj26lX1V4klRdcaq9rae8lOfgXdq0UbynXYYtostq4Z7qw8n8wYnJOGiha5BO9+MjweqyM1+3Z33Gg6O8SvCkU77YAZ9cV6fC4Z6Nj8ylD7KCvqblQHGwWac9JgPCX1DbRYEOTlt5iTcpxJ9bXxqoIxEpzuk9OUXDYi94WtWC3d6Dz32APYZprCEAHwRaj4q/3okRkBzseMmsMMir2OqwoW3R5oCDYKAAstyUeie2vJ5mRORgR+zB2HlGYVYXEXsCGhGdizBlBU4JnJarVt2sGNHAvTnAl3A1K0tP3IhlZUS/xjIafVg8kAuFcD2ze6kTETcV8Yv2lRFwjMOC8GtIj2bfV9ghXsSjktQwp2L8kaPnJWxBzxOsw7koATIY1ZzocsesBvEDPPTggUMkm4vd7XySBn5KPj+ZtxGhSQDt6Yc9OhjDfGmWEe1MlMlO2TzhDfEEhPS+Iwqeat5znTW62GFcFj01unPy4aeLVM07fk1A/ih2SjdUyhFE2qTN4ZOkGcD+r3CwIeH0Nea42mXhbLi2/+bka98pewzLs4+GUIrHZR/p5j4KTdto+2hOhln/cFTLBo2zHEutjZkW+4VpVW32r82D39DE2hBpicA12+qukBLGQfSE6vY2osBZR1VeRwzOw3eGkunUkSUqRZgIWqHTwlIDdP4klOtM3hmS2nAcIUX9KShkwmhXQO5c0iOTyLFkDKRu9fkbBzg/UWk6+clBQvMM7OiB/Pd8rxbSXe8UuWc4/56rbKwUvvM0/QQLwUsHHM/OFD+ObE9YSOJj+tIIII+umOTRUFBY1v7nzBapPDp7dfgRFZIE2Hox90LveMgjxyuIxhEGc+Xqr1em1jHXXj/itND4SBArhBqhwGDHnb7o4bx/+fL2K3NgGEbXh2EMXNOaTS43R1xDQuG0TzYVLo/2vNgzFDqCEt3ccGbJXbBRCWdEDCIRQD7x1nU8otm+XOO7Ho/HyatbOSSFwf5D5I0kxr/xIZ0WrgLvv3Ytk3Sng9Wtc8k1i9Fqcv6MFyrE43RZPykeqTk0d7Gf9s+nq8iY/1uezh+32dA0qi7ykABt9PZrA13TNBe/MF13MDDeOn9AsAYNGjRo0KBBgwYNEuA/X+CZErCu+YQAAAAASUVORK5CYII=;" vertex="1" parent="7">
                    <mxGeometry x="510" y="70" width="225" height="225" as="geometry"/>
                </mxCell>
            </root>
        </mxGraphModel>
    </diagram>
</mxfile>